<svg width="68" height="59" viewBox="0 0 68 59" fill="none" xmlns="http://www.w3.org/2000/svg">
<path d="M58.5 29.5C58.5 45.5775 47.0258 58.5 33 58.5C18.9742 58.5 7.5 45.5775 7.5 29.5C7.5 13.4225 18.9742 0.5 33 0.5C47.0258 0.5 58.5 13.4225 58.5 29.5Z" fill="#32353E" stroke="#FEFEFE"/>
<path d="M48.3291 50.0166H17.8291L18.8291 51.0166H47.3291L48.3291 50.0166Z" fill="#B1DAEF"/>
<path d="M15.3291 47.5166L15.8291 48.5166H49.8291L50.8291 47.5166H15.3291Z" fill="#B1DAEF"/>
<path d="M49.8291 43.5166H51.3291V26.0166H49.8291V43.5166Z" fill="#B1DAEF"/>
<path d="M48.8291 43.5166H46.8291V26.0166H48.8291V43.5166Z" fill="#B1DAEF"/>
<path d="M43.8291 43.5166H45.8291V26.5166H43.8291V43.5166Z" fill="#B1DAEF"/>
<path d="M40.8291 43.5167H42.8291V15.0167H40.8291V43.5167Z" fill="#B1DAEF"/>
<path d="M38.3291 43.5167H39.8291V15.5167H38.3291V43.5167Z" fill="#B1DAEF"/>
<path d="M35.8291 43.5166H37.3291V15.7209H35.8291V43.5166Z" fill="#B1DAEF"/>
<path d="M32.3291 16.0167V32.5167L30.8291 31.5167V16.0167H32.3291Z" fill="#B1DAEF"/>
<path d="M33.3291 16.0167V33.0167L34.8291 34.0167V16.0167H33.3291Z" fill="#B1DAEF"/>
<path d="M22.8291 54.0166H43.3291L45.3291 52.5166H20.8291L22.8291 54.0166Z" fill="#B1DAEF"/>
<path d="M25.8291 55.0166H40.3291C40.8291 55.5166 35.4958 56.35 32.8291 56.5166C27.6291 56.5166 25.9958 55.5166 25.8291 55.0166Z" fill="#B1DAEF"/>
<path d="M51.3291 46.0166L52.3291 44.5166H33.8291V38.5166H32.8291V46.0166H51.3291Z" fill="#EFEFEE"/>
<path d="M31.8291 46.0166H30.3291V38.5166H31.8291V46.0166Z" fill="#EFEFEE"/>
<path d="M29.3291 38.5166V46.0166H27.8291V38.5166H29.3291Z" fill="#EFEFEE"/>
<path d="M25.3291 46.0166H26.8291V38.5166H25.3291V46.0166Z" fill="#EFEFEE"/>
<path d="M24.3291 38.5166V46.0166H22.8291V38.5166H24.3291Z" fill="#EFEFEE"/>
<path d="M21.8291 38.5166V46.0166H20.3291V38.5166H21.8291Z" fill="#EFEFEE"/>
<path d="M19.3291 46.0166V38.5166H17.8291V44.5166H12.8291L14.3291 46.0166H19.3291Z" fill="#EFEFEE"/>
<path d="M17.8291 35.5166V37.0166H33.8291V35.0166L26.3291 31.5166L17.8291 35.5166Z" fill="#EFEFEE"/>
<path d="M17.3291 32.5166H15.8291V25.5166H17.3291V32.5166Z" fill="#EFEFEE"/>
<path d="M18.3291 25.5166V32.5166H19.8291V25.5166H18.3291Z" fill="#EFEFEE"/>
<path d="M20.3291 25.5166V32.5166H21.8291V25.5166H20.3291Z" fill="#EFEFEE"/>
<path d="M23.8291 31.0166L22.8291 32.0166V25.5166H23.8291V31.0166Z" fill="#EFEFEE"/>
<path d="M24.8291 25.5166V30.5166L25.8291 30.0166V25.5166H24.8291Z" fill="#EFEFEE"/>
<path d="M9.8291 37.0167H10.8291V32.5167H15.3291V24.0167C15.7291 21.2167 18.8291 19.1834 20.3291 18.5167V14.0167H21.3291V19.0167C24.5291 18.6167 26.6624 22.1834 27.3291 24.0167V30.0167L29.3291 31.0167V15.5167L42.8291 14.0167L46.3291 15.5167V25.5167L52.3291 25.0167L54.3291 26.0167V42.0167C55.9291 39.6167 56.6624 34.6834 56.8291 32.5167C58.0291 26.5167 55.3291 18.6834 53.8291 15.5167C49.0291 4.31672 37.8291 1.85002 32.8291 2.01667C23.6291 1.61667 16.3291 8.51666 13.8291 12.0167C7.8291 20.4167 8.66244 32.1833 9.8291 37.0167Z" fill="#E5EEF5"/>
<path d="M26.5 33L21 35.5H31.5L26.5 33Z" fill="#32353E"/>
</svg>
